<mxfile host="app.diagrams.net" agent="Mozilla/5.0 (Windows NT 10.0; Win64; x64) AppleWebKit/537.36 (KHTML, like Gecko) Chrome/133.0.0.0 Safari/537.36 Edg/133.0.0.0" version="26.1.0">
  <diagram name="Trang-1" id="-_KU4Y6mP7FVaIkoBBQO">
    <mxGraphModel grid="1" page="1" gridSize="10" guides="1" tooltips="1" connect="1" arrows="1" fold="1" pageScale="1" pageWidth="827" pageHeight="1169" math="0" shadow="0">
      <root>
        <mxCell id="0" />
        <mxCell id="1" parent="0" />
        <mxCell id="IESuZs6tPjfDXqYHdYMb-14" style="edgeStyle=orthogonalEdgeStyle;rounded=0;orthogonalLoop=1;jettySize=auto;html=1;entryX=0.5;entryY=0;entryDx=0;entryDy=0;" edge="1" parent="1" source="IESuZs6tPjfDXqYHdYMb-3" target="IESuZs6tPjfDXqYHdYMb-8">
          <mxGeometry relative="1" as="geometry" />
        </mxCell>
        <mxCell id="IESuZs6tPjfDXqYHdYMb-3" value="Begin" style="ellipse;whiteSpace=wrap;html=1;" vertex="1" parent="1">
          <mxGeometry x="300" y="60" width="120" height="40" as="geometry" />
        </mxCell>
        <mxCell id="IESuZs6tPjfDXqYHdYMb-15" style="edgeStyle=orthogonalEdgeStyle;rounded=0;orthogonalLoop=1;jettySize=auto;html=1;entryX=0.5;entryY=0;entryDx=0;entryDy=0;" edge="1" parent="1" source="IESuZs6tPjfDXqYHdYMb-8" target="IESuZs6tPjfDXqYHdYMb-9">
          <mxGeometry relative="1" as="geometry" />
        </mxCell>
        <mxCell id="IESuZs6tPjfDXqYHdYMb-8" value="Input tiền USD" style="shape=parallelogram;perimeter=parallelogramPerimeter;whiteSpace=wrap;html=1;fixedSize=1;" vertex="1" parent="1">
          <mxGeometry x="275" y="120" width="170" height="30" as="geometry" />
        </mxCell>
        <mxCell id="IESuZs6tPjfDXqYHdYMb-16" style="edgeStyle=orthogonalEdgeStyle;rounded=0;orthogonalLoop=1;jettySize=auto;html=1;exitX=0.5;exitY=1;exitDx=0;exitDy=0;entryX=0.5;entryY=0;entryDx=0;entryDy=0;" edge="1" parent="1" source="IESuZs6tPjfDXqYHdYMb-9" target="IESuZs6tPjfDXqYHdYMb-11">
          <mxGeometry relative="1" as="geometry" />
        </mxCell>
        <mxCell id="IESuZs6tPjfDXqYHdYMb-9" value="VND = USD * tỉ giá hiện tại (23000)" style="rounded=1;whiteSpace=wrap;html=1;" vertex="1" parent="1">
          <mxGeometry x="263.75" y="170" width="192.5" height="60" as="geometry" />
        </mxCell>
        <mxCell id="IESuZs6tPjfDXqYHdYMb-10" value="" style="edgeStyle=orthogonalEdgeStyle;rounded=0;orthogonalLoop=1;jettySize=auto;html=1;" edge="1" parent="1" source="IESuZs6tPjfDXqYHdYMb-11">
          <mxGeometry relative="1" as="geometry">
            <mxPoint x="360" y="320" as="targetPoint" />
          </mxGeometry>
        </mxCell>
        <mxCell id="IESuZs6tPjfDXqYHdYMb-11" value="Dispay : VND" style="shape=parallelogram;perimeter=parallelogramPerimeter;whiteSpace=wrap;html=1;fixedSize=1;" vertex="1" parent="1">
          <mxGeometry x="275" y="250" width="170" height="50" as="geometry" />
        </mxCell>
        <mxCell id="IESuZs6tPjfDXqYHdYMb-17" value="END" style="ellipse;whiteSpace=wrap;html=1;" vertex="1" parent="1">
          <mxGeometry x="300" y="320" width="120" height="40" as="geometry" />
        </mxCell>
      </root>
    </mxGraphModel>
  </diagram>
</mxfile>
